<svg xmlns="http://www.w3.org/2000/svg" xmlns:xlink="http://www.w3.org/1999/xlink" width="192" height="20" viewBox="0 0 192 20">
    <defs>
        <path id="a" d="M15.488 19.074H.018V.268h30.94v18.806h-15.47z"/>
    </defs>
    <g fill="none" fill-rule="evenodd">
        <path fill="#1A1919" d="M17.004.286h19.158c.232 0 .52.037.861.11.342.074.67.177.982.31.313.132.579.283.797.452.218.169.327.35.327.54v2.625c0 .177-.113.35-.338.518-.226.17-.484.32-.775.453a6.16 6.16 0 0 1-.862.32c-.283.08-.483.12-.6.12H24.27V4.192h9.077a.72.72 0 0 0 .404-.122c.123-.08.229-.176.316-.286.087-.11.153-.221.196-.331a.759.759 0 0 0 .066-.254c0-.367-.084-.669-.25-.904-.168-.236-.485-.353-.95-.353H22.023v6.904h-5.019V.286M58.548 1.124l7.811 7.721h-5.236l-6.175-6.33a2.69 2.69 0 0 0-.491-.442c-.139-.088-.324-.132-.557-.132h-.37L49.23 5.845h7.004l1.68 1.721H47.573l-1.593 1.28H40.7l9.448-8.56h5.083c.553 0 1.124.04 1.713.121.59.081 1.124.32 1.604.717M67.93.286h18.895c.32 0 .665.048 1.037.143.37.096.72.236 1.047.42.327.184.6.408.818.672.218.265.327.567.327.905v4.28c0 .25-.087.5-.261.75a3.35 3.35 0 0 1-.644.684 3.72 3.72 0 0 1-.83.507 2.041 2.041 0 0 1-.818.198H75.196v-1.5h8.53c.117-.058.255-.121.415-.187.16-.066.313-.136.459-.21.145-.073.276-.15.392-.231a.708.708 0 0 0 .24-.254V2.691c0-.133-.08-.247-.24-.342a2.336 2.336 0 0 0-.545-.232 4.813 4.813 0 0 0-.59-.132 3.467 3.467 0 0 0-.348-.044h-10.56v6.904h-5.02V.286M91.626.286h18.895c.32 0 .665.048 1.036.143.371.096.72.236 1.047.42.328.184.6.408.819.672.217.265.327.567.327.905v4.28c0 .25-.088.5-.262.75a3.35 3.35 0 0 1-.644.684 3.715 3.715 0 0 1-.829.507 2.039 2.039 0 0 1-.818.198H98.89v-1.5h8.531c.117-.058.255-.121.415-.187.16-.066.312-.136.458-.21.145-.073.276-.15.393-.231a.709.709 0 0 0 .24-.254V2.691c0-.133-.08-.247-.24-.342a2.334 2.334 0 0 0-.546-.232 4.825 4.825 0 0 0-.589-.132 3.467 3.467 0 0 0-.349-.044h-10.56v6.904h-5.018V.286M137.554 1.742v5.714a.86.86 0 0 1-.229.573 1.906 1.906 0 0 1-.567.441c-.226.118-.473.21-.742.276-.27.066-.513.1-.73.1h-18.089c-.13 0-.302-.048-.513-.144a3.582 3.582 0 0 1-.621-.364 3.249 3.249 0 0 1-.524-.463c-.146-.162-.218-.302-.218-.42V1.699c0-.103.065-.232.196-.386s.302-.309.513-.463c.21-.155.447-.287.709-.397.262-.11.516-.166.764-.166h13.047V1.83h-9.644c-.073 0-.167.055-.283.166a3.997 3.997 0 0 0-.611.739.985.985 0 0 0-.11.198V6.22c0 .103.037.213.11.33a1.4 1.4 0 0 0 .272.321c.11.096.219.176.328.243.109.066.207.099.294.099h10.67c.101 0 .225-.044.37-.132.146-.089.288-.188.426-.298.139-.11.254-.22.35-.331.094-.11.141-.187.141-.232V.286h2.444c.13 0 .32.033.567.1.247.066.498.161.753.286.254.126.473.276.654.452a.835.835 0 0 1 .273.618M159.875 8.845h-18.59c-.174 0-.385-.058-.633-.176a5.09 5.09 0 0 1-.72-.419 2.965 2.965 0 0 1-.589-.53c-.16-.19-.24-.36-.24-.507V1.94c0-.162.08-.339.24-.53.16-.19.356-.371.59-.54.232-.17.472-.309.72-.42.247-.11.458-.165.632-.165h18.59v1.787h-15.382c-.204.118-.328.324-.371.618v3.772c.043.22.167.434.37.64h15.383v1.742M177.156 8.845l-6.524-3.53h-1.92V3.574h2.334l6.066-3.287h6.415l-7.92 4.28 7.941 4.28h-6.392zm-15.71 0h5.105V.286h-5.105v8.56zM94.635 17.017v1.824H92.36v-4.394h2.275l3.483 3.556 3.45-3.556h2.274v4.394h-2.285v-1.767l-1.31 1.291a1.597 1.597 0 0 1-.706.385c-.255.06-.505.09-.751.09h-2.375l-1.78-1.823M104.536 15.194c0-.12.041-.227.124-.317.082-.09.177-.168.285-.232.108-.064.218-.114.33-.148a.974.974 0 0 1 .258-.05h1.098v3.046c0 .022.02.062.062.119.04.056.09.113.15.17.06.056.124.107.191.153a.325.325 0 0 0 .168.068h4.76a.259.259 0 0 0 .135-.052.872.872 0 0 0 .263-.288.352.352 0 0 0 .05-.17v-1.687a.528.528 0 0 0-.05-.103 2.132 2.132 0 0 0-.274-.379c-.052-.056-.093-.085-.123-.085h-4.301v-.792h5.824a.77.77 0 0 1 .342.084 1.517 1.517 0 0 1 .543.442c.06.08.09.146.09.198v2.956c0 .06-.034.132-.101.215a1.765 1.765 0 0 1-.235.238c-.09.076-.183.138-.28.187a.554.554 0 0 1-.224.074h-8.077c-.104 0-.214-.017-.33-.051a1.381 1.381 0 0 1-.325-.142.857.857 0 0 1-.252-.226.484.484 0 0 1-.1-.295v-2.933M118.594 18.84h2.218v-2.876h-2.218v2.876zm-3.439-3.476h9.275v-.917h-9.275v.917zM125.124 15.194c0-.12.042-.227.124-.317.081-.09.177-.168.285-.232.108-.064.219-.114.33-.148a.982.982 0 0 1 .258-.05h1.098v3.046c0 .022.02.062.062.119.04.056.091.113.15.17.06.056.124.107.192.153a.324.324 0 0 0 .167.068h4.76a.26.26 0 0 0 .136-.052.856.856 0 0 0 .263-.288.353.353 0 0 0 .05-.17v-1.687a.54.54 0 0 0-.05-.103 1.953 1.953 0 0 0-.275-.379c-.052-.056-.093-.085-.123-.085h-4.301v-.792h5.824c.112 0 .226.028.342.084a1.51 1.51 0 0 1 .543.442c.06.08.09.146.09.198v2.956c0 .06-.033.132-.101.215a1.73 1.73 0 0 1-.235.238c-.09.076-.183.138-.28.187a.554.554 0 0 1-.224.074h-8.077c-.104 0-.214-.017-.33-.051a1.387 1.387 0 0 1-.325-.142.86.86 0 0 1-.252-.226.484.484 0 0 1-.1-.295v-2.933M135.744 18.84v-3.034c0-.19.042-.366.128-.533.086-.166.196-.311.33-.436.135-.124.286-.22.455-.289.168-.068.333-.101.498-.101h7.147c.104 0 .23.018.38.056.15.038.295.09.437.158.142.069.261.146.359.233.097.087.145.18.145.277v1.348c0 .09-.05.18-.151.266a1.79 1.79 0 0 1-.347.232c-.131.068-.26.123-.387.164a1.02 1.02 0 0 1-.268.062h-1.546l3.069 1.598h-3.237l-3.036-1.609v-.781h3.394c.067 0 .123-.02.168-.062a.554.554 0 0 0 .112-.147.83.83 0 0 0 .09-.3.871.871 0 0 0-.113-.465c-.074-.12-.212-.181-.414-.181h-4.211a.567.567 0 0 0-.258.068 1.006 1.006 0 0 0-.431.419.551.551 0 0 0-.073.26v2.798h-2.24M151.862 18.84a.605.605 0 0 1-.285-.09 2.358 2.358 0 0 1-.32-.215 1.37 1.37 0 0 1-.263-.272.463.463 0 0 1-.106-.26v-2.707c0-.083.035-.174.106-.272.071-.098.159-.19.263-.277.105-.087.211-.159.32-.216a.632.632 0 0 1 .285-.084h8.3v.917h-6.866c-.09.06-.146.166-.168.317v1.937c.022.12.079.23.168.328h6.866v.895h-8.3M161.832 18.84a.603.603 0 0 1-.286-.09 2.34 2.34 0 0 1-.32-.215 1.364 1.364 0 0 1-.262-.272.463.463 0 0 1-.107-.26v-3.556h2.24v3.17a.66.66 0 0 0 .169.329h6.866v.895h-8.3M170.827 14.447h2.285v3.046c0 .022.017.062.05.119.034.056.077.113.129.17.052.056.108.107.168.153.06.045.115.068.168.068h4.592a.31.31 0 0 0 .163-.052.682.682 0 0 0 .263-.288.39.39 0 0 0 .045-.17v-3.046h2.061v3.68c0 .06-.033.132-.1.215a1.584 1.584 0 0 1-.242.238 1.586 1.586 0 0 1-.285.187.554.554 0 0 1-.224.074h-8.065c-.112 0-.226-.017-.342-.051a1.384 1.384 0 0 1-.325-.142.794.794 0 0 1-.246-.226.503.503 0 0 1-.095-.295v-3.68M183.686 15.296v2.707h4.85c.202 0 .359-.036.47-.108.113-.072.169-.198.169-.38 0-.06-.004-.137-.011-.232a.315.315 0 0 0-.102-.22h-4.368v-.839h4.335a.26.26 0 0 0 .129-.198c.011-.087.017-.168.017-.243 0-.181-.056-.308-.168-.38-.112-.071-.269-.107-.47-.107h-4.85zm6.318-.85c.104 0 .231.02.38.057.15.038.296.09.437.158.142.069.262.146.359.233.097.087.145.18.145.277v.895c0 .022-.018.06-.056.113-.037.053-.08.11-.128.17a2.283 2.283 0 0 1-.275.283.85.85 0 0 1 .123.13c.052.065.105.13.157.199.052.068.095.13.13.187.033.056.05.092.05.107v.872c0 .098-.05.19-.146.278a1.401 1.401 0 0 1-.359.226 2.568 2.568 0 0 1-.436.153c-.15.038-.277.057-.381.057h-8.558v-4.394h8.558z"/>
        <g>
            <mask id="b" fill="#fff">
                <use xlink:href="#a"/>
            </mask>
            <path fill="#F6BC25" d="M16.948 19.074h14.01v-4.69h-14.01z" mask="url(#b)"/>
            <path fill="#1A1919" d="M16.997 8.827h5.106V.267h-5.106v8.56zM6.393.267l6.524 3.53h1.92v1.744h-2.334L6.437 8.827H.022l7.92-4.28L0 .268h6.393z" mask="url(#b)"/>
        </g>
        <path fill="#F6BC25" d="M40.968 19.074h14.01v-4.69h-14.01zM67.768 19.074h14.01v-4.69h-14.01z"/>
    </g>
</svg>
